# xmcd
#
# Track frame offsets:
#	150
#	12028
#	23911
#	35685
#	48673
#	60426
#	72457
#	83680
#	96616
#	107932
#	121365
#	133658
#	144838
#	158480
#	171869
#	183755
#	196560
#	209974
#	221988
#	235115
#	247972
#	259679
#	272271
#	284894
#	297152
#
# Disc length: 4112 seconds
#
# Revision: 1
# Processed by: cddbd v1.5.1PL0 Copyright (c) Steve Scherf et al.
# Submitted via: audiograbber 1.82.01
#
DISCID=75100e19
DTITLE=Acuff Roy - Wabash Cannonball
DYEAR=2004
DGENRE=Country
TTITLE0=I Talk To Myself About You
TTITLE1=Freight Train Blues
TTITLE2=Wabash Cannonball
TTITLE3=Our Own Jole Blon
TTITLE4=Waltz Of The Wind
TTITLE5=A Sinner's Death (I'm Dying)
TTITLE6=Tennessee Central (#9)
TTITLE7=There's A Big Rock In The Road
TTITLE8=Po' Folks All The Time
TTITLE9=When They Take The Last Look At You
TTITLE10=Heartaches And Flowers
TTITLE11=You'll Reap These Tears
TTITLE12=It's Just About Time
TTITLE13=I'll Always Care
TTITLE14=It's So Hard To Smile
TTITLE15=The Midnight Train
TTITLE16=Tennessee Waltz
TTITLE17=Dance Around Molly
TTITLE18=Black Mountain Rag
TTITLE19=Smokey Mountain Rag
TTITLE20=Lonesome Indian
TTITLE21=Polk County Breakdown
TTITLE22=Jesus Died For Me
TTITLE23=The Day They Laid Mary Away
TTITLE24=It's All Right Now
EXTD=
EXTT0=
EXTT1=
EXTT2=
EXTT3=
EXTT4=
EXTT5=
EXTT6=
EXTT7=
EXTT8=
EXTT9=
EXTT10=
EXTT11=
EXTT12=
EXTT13=
EXTT14=
EXTT15=
EXTT16=
EXTT17=
EXTT18=
EXTT19=
EXTT20=
EXTT21=
EXTT22=
EXTT23=
EXTT24=
PLAYORDER=
